<?xml version="1.0" encoding="UTF-8" standalone="no"?>
<!-- Created with Inkscape (http://www.inkscape.org/) -->

<svg
   width="64"
   height="64"
   viewBox="0 0 16.933333 16.933333"
   version="1.1"
   id="svg9859"
   inkscape:version="1.3 (0e150ed6c4, 2023-07-21)"
   sodipodi:docname="pardus-font-manager.svg"
   xmlns:inkscape="http://www.inkscape.org/namespaces/inkscape"
   xmlns:sodipodi="http://sodipodi.sourceforge.net/DTD/sodipodi-0.dtd"
   xmlns="http://www.w3.org/2000/svg"
   xmlns:svg="http://www.w3.org/2000/svg">
  <sodipodi:namedview
     id="namedview9861"
     pagecolor="#ffffff"
     bordercolor="#000000"
     borderopacity="0.25"
     inkscape:showpageshadow="2"
     inkscape:pageopacity="0.0"
     inkscape:pagecheckerboard="0"
     inkscape:deskcolor="#d1d1d1"
     inkscape:document-units="px"
     showgrid="false"
     inkscape:zoom="5.9081369"
     inkscape:cx="20.649487"
     inkscape:cy="28.012215"
     inkscape:window-width="1920"
     inkscape:window-height="1127"
     inkscape:window-x="0"
     inkscape:window-y="0"
     inkscape:window-maximized="1"
     inkscape:current-layer="layer1" />
  <defs
     id="defs9856" />
  <g
     inkscape:label="Layer 1"
     inkscape:groupmode="layer"
     id="layer1">
    <g
       id="g1"
       transform="matrix(1.3479395,0,0,1.3479395,-2.9458881,-2.9458881)">
      <g
         id="g197"
         transform="matrix(0.26458333,0,0,0.26458333,80.393343,24.804687)">
        <path
           class="st0"
           d="m -256.2,-85.1 h -31 -0.2 c -3.9,0.3 -7,3.4 -7.3,7.3 v 0.2 31.4 0.3 c 0.3,4 3.5,7.2 7.5,7.5 h 0.2 30.4 c 0,0 0.1,0 0.2,0 4.2,-0.3 7.4,-3.7 7.4,-7.8 v -31.3 c 0.1,-4 -3.1,-7.3 -7.2,-7.6 z"
           id="path155"
           style="opacity:0.3;fill:#ffffff;enable-background:new" />
        <g
           id="g195">
          <path
             class="st10"
             d="m -286.9,-39.4 h -0.2 c -3.5,-0.2 -6.3,-3 -6.6,-6.6 v -0.2 -31.4 -0.2 c 0.2,-3.4 3,-6.1 6.4,-6.4 h 0.2 30.9 c 3.5,0.2 6.3,3.1 6.3,6.6 v 31.3 c 0,3.6 -2.8,6.6 -6.5,6.8 h -0.1 z"
             id="path157"
             style="fill:#ffffff" />
          <polygon
             class="st12"
             points="-278.9,-83.1 -264.7,-83.1 "
             id="polygon159"
             style="opacity:0.3;fill:#bbd8e8;enable-background:new" />
          <path
             class="st13"
             d="m -278.9,-83 h -8.2 -0.1 c -2.9,0.2 -5.2,2.5 -5.4,5.4 v 0.1 8.7 h 13.7 z"
             id="path161"
             style="opacity:0.8;fill:#bbd8e8;enable-background:new" />
          <rect
             x="-278.89999"
             y="-83"
             class="st12"
             width="14.2"
             height="14.2"
             id="rect163"
             style="opacity:0.3;fill:#bbd8e8;enable-background:new" />
          <path
             class="st14"
             d="m -251,-68.9 v -8.6 c 0,-2.9 -2.3,-5.4 -5.3,-5.6 h -0.1 -8.3 v 14.2 z"
             id="path165"
             style="opacity:0.5;fill:#bbd8e8;enable-background:new" />
          <rect
             x="-292.60001"
             y="-68.900002"
             class="st15"
             width="13.7"
             height="14.2"
             id="rect167"
             style="opacity:0.1;fill:#bbd8e8;enable-background:new" />
          <rect
             x="-278.89999"
             y="-68.900002"
             class="st14"
             width="14.2"
             height="14.2"
             id="rect169"
             style="opacity:0.5;fill:#bbd8e8;enable-background:new" />
          <rect
             x="-264.70001"
             y="-68.900002"
             class="st16"
             width="13.7"
             height="14.2"
             id="rect171"
             style="opacity:0.2;fill:#bbd8e8;enable-background:new" />
          <path
             class="st17"
             d="m -292.6,-54.6 v 8.4 0.2 c 0.2,3 2.6,5.4 5.6,5.6 h 0.1 8 v -14.2 z"
             id="path173"
             style="opacity:0.4;fill:#bbd8e8;enable-background:new" />
          <rect
             x="-278.89999"
             y="-54.599998"
             class="st12"
             width="14.2"
             height="14.2"
             id="rect175"
             style="opacity:0.3;fill:#bbd8e8;enable-background:new" />
          <path
             class="st18"
             d="m -264.7,-40.4 h 8.1 0.1 c 3.1,-0.2 5.5,-2.7 5.5,-5.7 v -8.4 h -13.7 z"
             id="path177"
             style="opacity:0.6;fill:#bbd8e8;enable-background:new" />
          <g
             id="g189">
            <g
               id="g183">
              <g
                 id="g181">
                <path
                   class="st2"
                   d="m -273,-53.4 c -0.2,-0.6 -0.4,-1.2 -0.6,-1.8 -0.2,-0.6 -0.4,-1.2 -0.6,-1.8 h -6.6 c -0.2,0.6 -0.4,1.2 -0.6,1.9 -0.2,0.6 -0.4,1.2 -0.6,1.8 h -3.9 c 0.6,-1.8 1.2,-3.5 1.8,-5 0.6,-1.5 1.1,-3 1.7,-4.4 0.5,-1.4 1.1,-2.7 1.6,-3.9 0.5,-1.2 1.1,-2.4 1.7,-3.6 h 3.6 c 0.6,1.2 1.1,2.4 1.6,3.6 0.5,1.2 1.1,2.5 1.6,3.9 0.5,1.4 1.1,2.8 1.7,4.4 0.6,1.5 1.2,3.2 1.8,5 h -4.2 z m -4.5,-13 c -0.1,0.2 -0.2,0.6 -0.4,1 -0.2,0.4 -0.3,0.9 -0.6,1.5 -0.2,0.6 -0.4,1.2 -0.7,1.8 -0.3,0.7 -0.5,1.4 -0.8,2.1 h 4.8 c -0.3,-0.7 -0.5,-1.4 -0.8,-2.1 -0.2,-0.7 -0.5,-1.3 -0.7,-1.8 -0.2,-0.6 -0.4,-1 -0.6,-1.5 -0.2,-0.5 -0.1,-0.8 -0.2,-1 z"
                   id="path179"
                   style="fill:#2f3536" />
              </g>
            </g>
            <g
               id="g187">
              <path
                 class="st2"
                 d="m -263.1,-66.6 c 1.1,0 2,0.1 2.7,0.4 0.7,0.2 1.3,0.6 1.7,1 0.4,0.5 0.7,1 0.9,1.7 0.2,0.6 0.3,1.4 0.3,2.2 v 7.6 c -0.5,0.1 -1.2,0.2 -2.2,0.4 -0.9,0.2 -2,0.2 -3.4,0.2 -0.8,0 -1.6,-0.1 -2.3,-0.2 -0.7,-0.1 -1.3,-0.4 -1.7,-0.7 -0.5,-0.3 -0.9,-0.8 -1.1,-1.3 -0.3,-0.5 -0.4,-1.2 -0.4,-2 0,-0.7 0.1,-1.4 0.5,-1.9 0.3,-0.5 0.7,-0.9 1.2,-1.2 0.5,-0.3 1.1,-0.5 1.7,-0.7 0.6,-0.1 1.3,-0.2 2,-0.2 0.5,0 0.9,0 1.3,0.1 0.4,0 0.7,0.1 0.9,0.2 v -0.3 c 0,-0.6 -0.2,-1.1 -0.6,-1.5 -0.4,-0.4 -1,-0.6 -1.9,-0.6 -0.6,0 -1.2,0 -1.8,0.1 -0.6,0.1 -1.1,0.2 -1.6,0.4 l -0.5,-2.9 c 0.2,-0.1 0.5,-0.1 0.8,-0.2 0.3,-0.1 0.7,-0.1 1,-0.2 0.4,-0.1 0.8,-0.1 1.2,-0.1 0.4,-0.3 0.8,-0.3 1.3,-0.3 z m 0.3,10.6 c 0.4,0 0.7,0 1,0 0.3,0 0.6,0 0.8,-0.1 v -2.8 c -0.1,0 -0.4,-0.1 -0.7,-0.1 -0.3,0 -0.6,0 -0.8,0 -0.3,0 -0.7,0 -1,0.1 -0.3,0 -0.6,0.1 -0.8,0.2 -0.2,0.1 -0.4,0.3 -0.5,0.5 -0.1,0.2 -0.2,0.4 -0.2,0.7 0,0.6 0.2,1 0.6,1.2 0.4,0.2 0.9,0.3 1.6,0.3 z"
                 id="path185"
                 style="fill:#2f3536" />
            </g>
          </g>
          <g
             id="g193">
            <path
               class="st2"
               d="m -286.9,-39.4 h -0.2 c -3.5,-0.2 -6.3,-3 -6.6,-6.6 v -0.2 -31.4 -0.2 c 0.2,-3.4 3,-6.1 6.4,-6.4 h 0.2 30.9 c 3.5,0.2 6.3,3.1 6.3,6.6 v 31.3 c 0,3.6 -2.8,6.6 -6.5,6.8 h -0.1 z m 0,-2.1 h 30.4 c 2.5,-0.2 4.5,-2.2 4.5,-4.7 v -31.3 c 0,-2.4 -1.9,-4.3 -4.3,-4.5 h -0.1 -30.7 c -2.3,0.2 -4.2,2 -4.4,4.4 v 0.1 31.5 c 0.2,2.4 2.1,4.3 4.6,4.5 z"
               id="path191"
               style="fill:#2f3536" />
          </g>
        </g>
      </g>
    </g>
  </g>
</svg>
